<mxfile host="Electron" modified="2023-09-16T20:06:45.135Z" agent="Mozilla/5.0 (X11; Linux x86_64) AppleWebKit/537.36 (KHTML, like Gecko) draw.io/21.3.7 Chrome/112.0.5615.204 Electron/24.5.0 Safari/537.36" etag="BUymzCN095VKeRuw7vAh" version="21.3.7" type="device">
  <diagram name="Page-1" id="PtPlZ7lnn2_ocKRQWq7T">
    <mxGraphModel dx="607" dy="380" grid="1" gridSize="10" guides="1" tooltips="1" connect="1" arrows="1" fold="1" page="1" pageScale="1" pageWidth="850" pageHeight="1100" math="0" shadow="0">
      <root>
        <mxCell id="0" />
        <mxCell id="1" parent="0" />
        <mxCell id="g1rMZGtN5V3IQvAPv1M4-1" value="Relations" style="text;html=1;strokeColor=none;fillColor=none;align=center;verticalAlign=middle;whiteSpace=wrap;rounded=0;" vertex="1" parent="1">
          <mxGeometry x="280" y="160" width="80" height="40" as="geometry" />
        </mxCell>
        <mxCell id="g1rMZGtN5V3IQvAPv1M4-2" value="Information" style="text;html=1;strokeColor=none;fillColor=none;align=center;verticalAlign=middle;whiteSpace=wrap;rounded=0;" vertex="1" parent="1">
          <mxGeometry x="400" y="160" width="80" height="40" as="geometry" />
        </mxCell>
        <mxCell id="g1rMZGtN5V3IQvAPv1M4-3" value="Data" style="text;html=1;strokeColor=none;fillColor=none;align=center;verticalAlign=middle;whiteSpace=wrap;rounded=0;" vertex="1" parent="1">
          <mxGeometry x="160" y="160" width="80" height="40" as="geometry" />
        </mxCell>
        <mxCell id="g1rMZGtN5V3IQvAPv1M4-4" value="" style="endArrow=none;dashed=1;html=1;rounded=0;" edge="1" parent="1">
          <mxGeometry width="50" height="50" relative="1" as="geometry">
            <mxPoint x="260" y="440" as="sourcePoint" />
            <mxPoint x="260" y="160" as="targetPoint" />
          </mxGeometry>
        </mxCell>
        <mxCell id="g1rMZGtN5V3IQvAPv1M4-5" value="" style="endArrow=none;dashed=1;html=1;rounded=0;" edge="1" parent="1">
          <mxGeometry width="50" height="50" relative="1" as="geometry">
            <mxPoint x="380" y="440" as="sourcePoint" />
            <mxPoint x="380" y="160" as="targetPoint" />
          </mxGeometry>
        </mxCell>
        <mxCell id="g1rMZGtN5V3IQvAPv1M4-14" style="edgeStyle=orthogonalEdgeStyle;rounded=0;orthogonalLoop=1;jettySize=auto;html=1;exitX=1;exitY=0.5;exitDx=0;exitDy=0;entryX=0;entryY=0.5;entryDx=0;entryDy=0;" edge="1" parent="1" source="g1rMZGtN5V3IQvAPv1M4-7" target="g1rMZGtN5V3IQvAPv1M4-10">
          <mxGeometry relative="1" as="geometry" />
        </mxCell>
        <mxCell id="g1rMZGtN5V3IQvAPv1M4-7" value="Day&lt;br&gt;8" style="ellipse;whiteSpace=wrap;html=1;aspect=fixed;" vertex="1" parent="1">
          <mxGeometry x="175" y="200" width="50" height="50" as="geometry" />
        </mxCell>
        <mxCell id="g1rMZGtN5V3IQvAPv1M4-11" style="edgeStyle=orthogonalEdgeStyle;rounded=0;orthogonalLoop=1;jettySize=auto;html=1;exitX=1;exitY=0.5;exitDx=0;exitDy=0;entryX=0;entryY=0.5;entryDx=0;entryDy=0;" edge="1" parent="1" source="g1rMZGtN5V3IQvAPv1M4-8" target="g1rMZGtN5V3IQvAPv1M4-10">
          <mxGeometry relative="1" as="geometry" />
        </mxCell>
        <mxCell id="g1rMZGtN5V3IQvAPv1M4-8" value="Month&lt;br&gt;3" style="ellipse;whiteSpace=wrap;html=1;aspect=fixed;" vertex="1" parent="1">
          <mxGeometry x="175" y="280" width="50" height="50" as="geometry" />
        </mxCell>
        <mxCell id="g1rMZGtN5V3IQvAPv1M4-21" style="edgeStyle=orthogonalEdgeStyle;rounded=0;orthogonalLoop=1;jettySize=auto;html=1;exitX=1;exitY=0.5;exitDx=0;exitDy=0;entryX=0;entryY=0.5;entryDx=0;entryDy=0;" edge="1" parent="1" source="g1rMZGtN5V3IQvAPv1M4-9" target="g1rMZGtN5V3IQvAPv1M4-19">
          <mxGeometry relative="1" as="geometry" />
        </mxCell>
        <mxCell id="g1rMZGtN5V3IQvAPv1M4-9" value="Woman" style="ellipse;whiteSpace=wrap;html=1;aspect=fixed;" vertex="1" parent="1">
          <mxGeometry x="175" y="360" width="50" height="50" as="geometry" />
        </mxCell>
        <mxCell id="g1rMZGtN5V3IQvAPv1M4-20" style="edgeStyle=orthogonalEdgeStyle;rounded=0;orthogonalLoop=1;jettySize=auto;html=1;exitX=1;exitY=0.5;exitDx=0;exitDy=0;entryX=0;entryY=0.5;entryDx=0;entryDy=0;" edge="1" parent="1" source="g1rMZGtN5V3IQvAPv1M4-10" target="g1rMZGtN5V3IQvAPv1M4-19">
          <mxGeometry relative="1" as="geometry">
            <Array as="points">
              <mxPoint x="370" y="265" />
              <mxPoint x="370" y="305" />
            </Array>
          </mxGeometry>
        </mxCell>
        <mxCell id="g1rMZGtN5V3IQvAPv1M4-10" value="Date" style="rounded=0;whiteSpace=wrap;html=1;" vertex="1" parent="1">
          <mxGeometry x="280" y="240" width="80" height="50" as="geometry" />
        </mxCell>
        <mxCell id="g1rMZGtN5V3IQvAPv1M4-19" value="Woman&#39;s Day" style="rounded=0;whiteSpace=wrap;html=1;" vertex="1" parent="1">
          <mxGeometry x="400" y="280" width="80" height="50" as="geometry" />
        </mxCell>
      </root>
    </mxGraphModel>
  </diagram>
</mxfile>
